<svg width="200" height="68" viewBox="0 0 200 68" fill="none" xmlns="http://www.w3.org/2000/svg">
<g clip-path="url(#clip0)">
<path d="M132.7 1.28494C132.103 1.28521 131.512 1.40403 130.961 1.6346C130.41 1.86516 129.909 2.20297 129.487 2.62869C128.654 3.46853 128.154 4.65481 128.154 5.87258V61.2456C128.154 62.4634 128.633 63.6286 129.487 64.4895C129.909 64.9151 130.41 65.2528 130.962 65.4832C131.513 65.7136 132.104 65.8322 132.701 65.8322C133.298 65.8322 133.889 65.7136 134.44 65.4832C134.992 65.2528 135.493 64.9151 135.915 64.4895C136.748 63.6496 137.248 62.4634 137.248 61.2456V5.87048C137.248 4.65271 136.769 3.48743 135.915 2.62659C135.493 2.20062 134.992 1.86267 134.44 1.63209C133.888 1.40152 133.297 1.28283 132.7 1.28284V1.28494ZM63.4458 20.8029C63.4458 18.2708 61.4104 16.2174 58.9042 16.2174C56.3979 16.2174 54.3625 18.2708 54.3625 20.8029V61.2414C54.3625 63.7735 56.3979 65.8269 58.9042 65.8269C61.4104 65.8269 63.4458 63.7735 63.4458 61.2414V20.8029Z" fill="white"/>
<path d="M64.7292 5.87891C64.6996 7.41728 64.0729 8.88267 62.9833 9.96055C61.8938 11.0376 60.4292 11.6402 58.9042 11.6402C57.3792 11.6402 55.9146 11.0355 54.825 9.96055C53.7355 8.88267 53.1087 7.41728 53.0792 5.87891C53.0785 4.31998 53.6922 2.82462 54.7854 1.72168C55.875 0.619385 57.3542 0 58.9021 0C60.45 0 61.9292 0.619385 63.0208 1.72168C64.114 2.82462 64.7277 4.31998 64.7271 5.87891H64.7292Z" fill="white"/>
<path d="M119.942 30.8517C115.575 20.8869 105.244 13.8448 93.4562 15.0626C89.4821 15.486 85.6593 16.8313 82.2875 18.9931C78.9144 21.1563 76.0836 24.0767 74.0167 27.5259C71.9488 30.9769 70.7004 34.863 70.3687 38.8806C70.0354 42.8992 70.6312 46.9431 72.1042 50.6888C73.5768 54.4356 75.8891 57.7885 78.8604 60.4855C81.8309 63.1805 85.3796 65.1466 89.2292 66.2301C93.0771 67.3135 97.1458 67.4814 101.048 66.7235C104.95 65.9655 108.669 64.3026 111.85 61.8629C112.385 61.4495 112.821 60.9208 113.127 60.3155C113.433 59.7108 113.602 59.0431 113.619 58.3628C113.653 57.1565 113.211 55.9857 112.389 55.1075C111.568 54.2293 110.434 53.7154 109.237 53.6786C108.209 53.6454 107.2 53.9685 106.379 54.594C103.232 57.043 99.3207 58.2777 95.35 58.0752C92.1208 57.9072 89.0042 56.8091 86.3917 54.9153C83.7564 53.0207 81.7119 50.4082 80.4979 47.384C80.3323 46.9763 80.3222 46.5213 80.4695 46.1065C80.6168 45.6918 80.9111 45.3466 81.2958 45.1374C81.5507 44.9994 81.8356 44.9273 82.125 44.9274H113.677C114.685 44.9316 115.685 44.7343 116.619 44.3479C117.552 43.9616 118.4 43.3926 119.115 42.6746C119.829 41.9565 120.398 41.104 120.785 40.1634C121.173 39.2238 121.374 38.2164 121.375 37.1988C121.312 35.0152 120.833 32.861 119.971 30.858L119.942 30.8517ZM96.1396 24.0237C99.5175 24.0246 102.818 25.0471 105.612 26.959C108.409 28.8731 110.572 31.5888 111.821 34.7548C111.926 35.0249 111.966 35.3166 111.935 35.6052C111.904 35.8936 111.803 36.1699 111.642 36.4103C111.481 36.6506 111.264 36.8478 111.01 36.9846C110.756 37.1211 110.473 37.1946 110.185 37.1946H82.0917C81.8036 37.1949 81.52 37.1228 81.2667 36.9846C81.0125 36.846 80.7958 36.6487 80.6333 36.4114C80.4708 36.1742 80.3708 35.8949 80.3417 35.6052C80.3115 35.3166 80.3508 35.0249 80.4562 34.7548C81.7052 31.5888 83.8678 28.8731 86.6646 26.959C89.4604 25.0693 92.7604 24.0237 96.1375 24.0237H96.1396ZM169.937 58.092C166.699 58.0927 163.529 57.1531 160.806 55.3856C158.083 53.6177 155.921 51.0961 154.556 48.1209C153.214 45.1469 152.747 41.8466 153.212 38.613C153.678 35.3794 155.055 32.3487 157.181 29.8816L150.306 23.967C148.08 26.5723 146.388 29.5957 145.327 32.8631C144.263 36.1306 143.849 39.5774 144.108 43.0063C144.367 46.435 145.296 49.7796 146.817 52.8472C148.359 55.9133 150.486 58.6424 153.077 60.8782C155.667 63.1143 158.669 64.8107 161.91 65.8752C165.151 66.9388 168.569 67.3456 171.967 67.072C175.362 66.7991 178.675 65.85 181.708 64.2795C184.742 62.711 187.439 60.554 189.644 57.9324L182.769 52.0199C181.187 53.9225 179.21 55.452 176.977 56.5005C174.744 57.5503 172.315 58.092 169.852 58.0899L169.937 58.092Z" fill="white"/>
<path d="M169.937 14.9072C166.219 14.903 162.542 15.7093 159.167 17.2693C155.785 18.8306 152.777 21.1095 150.35 23.9503L157.204 29.8649C160.125 26.4698 164.256 24.3786 168.698 24.0489C173.14 23.7193 177.531 25.168 180.917 28.0907C184.302 31.0133 186.404 35.1664 186.771 39.6448C187.134 44.1236 185.728 48.5658 182.858 52.0052L189.712 57.9177C192.9 54.1132 194.948 49.4689 195.608 44.5306C196.268 39.5924 195.515 34.567 193.437 30.0454C191.361 25.526 188.045 21.6991 183.881 19.0162C179.708 16.3518 174.875 14.9072 169.937 14.9072Z" fill="#00AEEF"/>
<path d="M45.9875 54.7998C45.2042 54.1153 44.2125 53.7206 43.175 53.6828C42.1375 53.645 41.1229 53.9663 40.2938 54.5919C37.7938 56.5194 34.8104 57.7036 31.6792 58.0101C28.5479 58.3167 25.3938 57.7372 22.575 56.3304C19.7563 54.9237 17.3792 52.7527 15.7146 50.0589C14.0507 47.3638 13.1663 44.2541 13.1612 41.0799C13.156 37.9057 14.0303 34.7931 15.6854 32.0925C17.3393 29.394 19.7081 27.2146 22.525 25.8C25.3417 24.387 28.4938 23.7949 31.625 24.0909C34.7563 24.387 37.7438 25.5606 40.25 27.4818C41.0706 28.1192 42.0835 28.4533 43.1192 28.428C44.1549 28.4028 45.1506 28.0198 45.9396 27.3432C46.45 26.9023 46.8563 26.3564 47.1271 25.7412C47.3979 25.126 47.5354 24.4542 47.5229 23.7781C47.5104 23.102 47.3438 22.4385 47.0438 21.8359C46.7438 21.2333 46.3104 20.7021 45.7834 20.2906C41.9453 17.3296 37.361 15.5113 32.55 15.0416C27.7375 14.5713 22.8959 15.4699 18.5646 17.6346C14.2334 19.7993 10.5917 23.1503 8.04585 27.2949C5.50002 31.4396 4.15627 36.2246 4.16669 41.0999C4.1771 45.9751 5.53544 50.7539 8.09377 54.8901C10.6521 59.0263 14.3063 62.3584 18.6438 64.5063C22.9813 66.6542 27.8313 67.5381 32.6375 67.0531C37.4464 66.5672 42.0242 64.7335 45.8521 61.76C46.3724 61.3488 46.7954 60.8262 47.0905 60.2299C47.3856 59.6336 47.5454 58.9787 47.5583 58.3125C47.5716 57.6464 47.4377 56.9856 47.1664 56.3781C46.8951 55.7706 46.4931 55.2315 45.9896 54.7998H45.9875Z" fill="white"/>
</g>
<defs>
<clipPath id="clip0">
<rect width="200" height="67.1875" fill="white"/>
</clipPath>
</defs>
</svg>
